<mxfile host="app.diagrams.net" modified="2021-08-30T04:27:54.012Z" agent="5.0 (Windows NT 10.0; Win64; x64) AppleWebKit/537.36 (KHTML, like Gecko) Chrome/92.0.4515.159 Safari/537.36 Edg/92.0.902.84" etag="EUTqAa4s2jCcRrGwIO1m" version="15.0.3" type="github">
  <diagram id="_NbG4w_K0xuAOrg6qDRn" name="Page-1">
    <mxGraphModel dx="1240" dy="643" grid="1" gridSize="10" guides="1" tooltips="1" connect="1" arrows="1" fold="1" page="1" pageScale="1" pageWidth="850" pageHeight="1100" math="0" shadow="0">
      <root>
        <mxCell id="0" />
        <mxCell id="1" parent="0" />
        <mxCell id="ObpPYNxJstlUsYkuxTiX-55" style="edgeStyle=none;rounded=0;orthogonalLoop=1;jettySize=auto;html=1;exitX=0;exitY=0.5;exitDx=0;exitDy=0;entryX=1;entryY=0.5;entryDx=0;entryDy=0;" edge="1" parent="1" source="ObpPYNxJstlUsYkuxTiX-1" target="ObpPYNxJstlUsYkuxTiX-2">
          <mxGeometry relative="1" as="geometry" />
        </mxCell>
        <mxCell id="ObpPYNxJstlUsYkuxTiX-65" style="edgeStyle=none;rounded=0;orthogonalLoop=1;jettySize=auto;html=1;exitX=0.25;exitY=1;exitDx=0;exitDy=0;" edge="1" parent="1" source="ObpPYNxJstlUsYkuxTiX-1" target="ObpPYNxJstlUsYkuxTiX-4">
          <mxGeometry relative="1" as="geometry" />
        </mxCell>
        <mxCell id="ObpPYNxJstlUsYkuxTiX-1" value="1" style="rounded=0;whiteSpace=wrap;html=1;" vertex="1" parent="1">
          <mxGeometry x="380" y="70" width="120" height="60" as="geometry" />
        </mxCell>
        <mxCell id="ObpPYNxJstlUsYkuxTiX-56" style="edgeStyle=none;rounded=0;orthogonalLoop=1;jettySize=auto;html=1;exitX=0.5;exitY=1;exitDx=0;exitDy=0;entryX=0.5;entryY=0;entryDx=0;entryDy=0;" edge="1" parent="1" source="ObpPYNxJstlUsYkuxTiX-2" target="ObpPYNxJstlUsYkuxTiX-3">
          <mxGeometry relative="1" as="geometry" />
        </mxCell>
        <mxCell id="ObpPYNxJstlUsYkuxTiX-66" style="edgeStyle=none;rounded=0;orthogonalLoop=1;jettySize=auto;html=1;exitX=0.75;exitY=1;exitDx=0;exitDy=0;entryX=0.5;entryY=0;entryDx=0;entryDy=0;" edge="1" parent="1" source="ObpPYNxJstlUsYkuxTiX-2" target="ObpPYNxJstlUsYkuxTiX-8">
          <mxGeometry relative="1" as="geometry" />
        </mxCell>
        <mxCell id="ObpPYNxJstlUsYkuxTiX-2" value="2" style="rounded=0;whiteSpace=wrap;html=1;" vertex="1" parent="1">
          <mxGeometry x="160" y="130" width="120" height="60" as="geometry" />
        </mxCell>
        <mxCell id="ObpPYNxJstlUsYkuxTiX-57" style="edgeStyle=none;rounded=0;orthogonalLoop=1;jettySize=auto;html=1;exitX=0.5;exitY=1;exitDx=0;exitDy=0;entryX=0.5;entryY=0;entryDx=0;entryDy=0;" edge="1" parent="1" source="ObpPYNxJstlUsYkuxTiX-3" target="ObpPYNxJstlUsYkuxTiX-4">
          <mxGeometry relative="1" as="geometry" />
        </mxCell>
        <mxCell id="ObpPYNxJstlUsYkuxTiX-67" style="edgeStyle=none;rounded=0;orthogonalLoop=1;jettySize=auto;html=1;exitX=0.75;exitY=1;exitDx=0;exitDy=0;entryX=0;entryY=0.25;entryDx=0;entryDy=0;" edge="1" parent="1" source="ObpPYNxJstlUsYkuxTiX-3" target="ObpPYNxJstlUsYkuxTiX-5">
          <mxGeometry relative="1" as="geometry" />
        </mxCell>
        <mxCell id="ObpPYNxJstlUsYkuxTiX-3" value="3" style="rounded=0;whiteSpace=wrap;html=1;" vertex="1" parent="1">
          <mxGeometry x="80" y="330" width="120" height="60" as="geometry" />
        </mxCell>
        <mxCell id="ObpPYNxJstlUsYkuxTiX-58" style="edgeStyle=none;rounded=0;orthogonalLoop=1;jettySize=auto;html=1;exitX=0.5;exitY=1;exitDx=0;exitDy=0;entryX=0;entryY=0.5;entryDx=0;entryDy=0;" edge="1" parent="1" source="ObpPYNxJstlUsYkuxTiX-4" target="ObpPYNxJstlUsYkuxTiX-8">
          <mxGeometry relative="1" as="geometry" />
        </mxCell>
        <mxCell id="ObpPYNxJstlUsYkuxTiX-68" style="edgeStyle=none;rounded=0;orthogonalLoop=1;jettySize=auto;html=1;exitX=1;exitY=0.75;exitDx=0;exitDy=0;entryX=0;entryY=0.5;entryDx=0;entryDy=0;" edge="1" parent="1" source="ObpPYNxJstlUsYkuxTiX-4" target="ObpPYNxJstlUsYkuxTiX-6">
          <mxGeometry relative="1" as="geometry" />
        </mxCell>
        <mxCell id="ObpPYNxJstlUsYkuxTiX-4" value="4" style="rounded=0;whiteSpace=wrap;html=1;" vertex="1" parent="1">
          <mxGeometry x="120" y="490" width="120" height="60" as="geometry" />
        </mxCell>
        <mxCell id="ObpPYNxJstlUsYkuxTiX-60" style="edgeStyle=none;rounded=0;orthogonalLoop=1;jettySize=auto;html=1;exitX=0.5;exitY=0;exitDx=0;exitDy=0;" edge="1" parent="1" source="ObpPYNxJstlUsYkuxTiX-5" target="ObpPYNxJstlUsYkuxTiX-6">
          <mxGeometry relative="1" as="geometry" />
        </mxCell>
        <mxCell id="ObpPYNxJstlUsYkuxTiX-70" style="edgeStyle=none;rounded=0;orthogonalLoop=1;jettySize=auto;html=1;exitX=0.25;exitY=0;exitDx=0;exitDy=0;entryX=0.75;entryY=1;entryDx=0;entryDy=0;" edge="1" parent="1" source="ObpPYNxJstlUsYkuxTiX-5" target="ObpPYNxJstlUsYkuxTiX-1">
          <mxGeometry relative="1" as="geometry" />
        </mxCell>
        <mxCell id="ObpPYNxJstlUsYkuxTiX-5" value="6" style="rounded=0;whiteSpace=wrap;html=1;" vertex="1" parent="1">
          <mxGeometry x="650" y="480" width="120" height="60" as="geometry" />
        </mxCell>
        <mxCell id="ObpPYNxJstlUsYkuxTiX-61" style="edgeStyle=none;rounded=0;orthogonalLoop=1;jettySize=auto;html=1;exitX=0.5;exitY=0;exitDx=0;exitDy=0;entryX=0.5;entryY=1;entryDx=0;entryDy=0;" edge="1" parent="1" source="ObpPYNxJstlUsYkuxTiX-6" target="ObpPYNxJstlUsYkuxTiX-7">
          <mxGeometry relative="1" as="geometry" />
        </mxCell>
        <mxCell id="ObpPYNxJstlUsYkuxTiX-71" style="edgeStyle=none;rounded=0;orthogonalLoop=1;jettySize=auto;html=1;exitX=0;exitY=0.25;exitDx=0;exitDy=0;entryX=1;entryY=1;entryDx=0;entryDy=0;" edge="1" parent="1" source="ObpPYNxJstlUsYkuxTiX-6" target="ObpPYNxJstlUsYkuxTiX-2">
          <mxGeometry relative="1" as="geometry" />
        </mxCell>
        <mxCell id="ObpPYNxJstlUsYkuxTiX-6" value="7" style="rounded=0;whiteSpace=wrap;html=1;" vertex="1" parent="1">
          <mxGeometry x="670" y="300" width="120" height="60" as="geometry" />
        </mxCell>
        <mxCell id="ObpPYNxJstlUsYkuxTiX-62" style="edgeStyle=none;rounded=0;orthogonalLoop=1;jettySize=auto;html=1;exitX=0.25;exitY=0;exitDx=0;exitDy=0;entryX=1;entryY=0.5;entryDx=0;entryDy=0;" edge="1" parent="1" source="ObpPYNxJstlUsYkuxTiX-7" target="ObpPYNxJstlUsYkuxTiX-1">
          <mxGeometry relative="1" as="geometry" />
        </mxCell>
        <mxCell id="ObpPYNxJstlUsYkuxTiX-72" style="edgeStyle=none;rounded=0;orthogonalLoop=1;jettySize=auto;html=1;exitX=0;exitY=0.25;exitDx=0;exitDy=0;entryX=1;entryY=0.5;entryDx=0;entryDy=0;" edge="1" parent="1" source="ObpPYNxJstlUsYkuxTiX-7" target="ObpPYNxJstlUsYkuxTiX-3">
          <mxGeometry relative="1" as="geometry" />
        </mxCell>
        <mxCell id="ObpPYNxJstlUsYkuxTiX-7" value="8" style="rounded=0;whiteSpace=wrap;html=1;" vertex="1" parent="1">
          <mxGeometry x="640" y="160" width="120" height="60" as="geometry" />
        </mxCell>
        <mxCell id="ObpPYNxJstlUsYkuxTiX-59" style="edgeStyle=none;rounded=0;orthogonalLoop=1;jettySize=auto;html=1;exitX=1;exitY=0.5;exitDx=0;exitDy=0;entryX=0.25;entryY=1;entryDx=0;entryDy=0;" edge="1" parent="1" source="ObpPYNxJstlUsYkuxTiX-8" target="ObpPYNxJstlUsYkuxTiX-5">
          <mxGeometry relative="1" as="geometry" />
        </mxCell>
        <mxCell id="ObpPYNxJstlUsYkuxTiX-69" style="edgeStyle=none;rounded=0;orthogonalLoop=1;jettySize=auto;html=1;exitX=0.75;exitY=0;exitDx=0;exitDy=0;entryX=0;entryY=1;entryDx=0;entryDy=0;" edge="1" parent="1" source="ObpPYNxJstlUsYkuxTiX-8" target="ObpPYNxJstlUsYkuxTiX-7">
          <mxGeometry relative="1" as="geometry" />
        </mxCell>
        <mxCell id="ObpPYNxJstlUsYkuxTiX-8" value="5" style="rounded=0;whiteSpace=wrap;html=1;" vertex="1" parent="1">
          <mxGeometry x="380" y="590" width="120" height="60" as="geometry" />
        </mxCell>
      </root>
    </mxGraphModel>
  </diagram>
</mxfile>
